<?xml version="1.0" encoding="UTF-8" standalone="no"?>
<!DOCTYPE svg PUBLIC "-//W3C//DTD SVG 20010904//EN"
              "http://www.w3.org/TR/2001/REC-SVG-20010904/DTD/svg10.dtd">

<svg xmlns="http://www.w3.org/2000/svg"
     width="5.64in" height="6.82667in"
     viewBox="0 0 1692 2048">
  <path id="Maansarovar"
        fill="none" stroke="black" stroke-width="1"
        d="M 1073.00,682.50
           C 1073.00,682.50 1014.00,660.00 1014.00,660.00
             1014.00,660.00 995.50,652.00 995.50,652.00
             995.50,652.00 972.50,651.50 972.50,651.50
             972.50,651.50 960.50,628.50 960.50,628.50
             960.50,628.50 976.00,600.00 976.00,600.00
             976.00,600.00 1026.50,566.50 1026.50,566.50
             1026.50,566.50 1069.50,572.50 1069.50,572.50
             1069.50,572.50 1100.00,605.50 1100.00,605.50
             1100.00,605.50 1102.00,628.50 1102.00,628.50
             1102.00,628.50 1095.00,650.50 1095.00,650.50
             1095.00,650.50 1091.50,661.00 1091.50,661.00
             1091.50,661.00 1073.00,682.50 1073.00,682.50 Z" />
  <path id="Gandak"
        fill="none" stroke="black" stroke-width="1"
        d="M 1184.50,731.00
           C 1184.50,731.00 1157.00,718.00 1157.00,718.00
             1157.00,718.00 1119.00,708.50 1119.00,708.50
             1119.00,708.50 1073.00,697.50 1073.00,697.50
             1073.00,697.50 1074.00,684.50 1074.00,684.50
             1074.00,684.50 1091.50,660.50 1091.50,660.50
             1091.50,660.50 1102.50,629.50 1102.50,629.50
             1102.50,629.50 1204.00,661.00 1204.00,661.00
             1204.00,661.00 1238.00,674.50 1238.00,674.50
             1238.00,674.50 1244.00,698.00 1244.00,698.00
             1244.00,698.00 1208.50,704.50 1208.50,704.50
             1208.50,704.50 1184.50,731.00 1184.50,731.00 Z" />
  <path id="Vidhla"
        fill="none" stroke="black" stroke-width="1"
        d="M 1187.50,730.00
           C 1187.50,730.00 1208.50,705.00 1208.50,705.00
             1208.50,705.00 1248.50,697.50 1248.50,697.50
             1248.50,697.50 1271.00,713.00 1271.00,713.00
             1271.00,713.00 1303.50,725.00 1303.50,725.00
             1303.50,725.00 1348.00,728.00 1348.00,728.00
             1348.00,728.00 1342.50,755.00 1342.50,755.00
             1342.50,755.00 1352.00,774.00 1352.00,774.00
             1352.00,774.00 1205.50,762.00 1205.50,762.00
             1205.50,762.00 1187.50,730.00 1187.50,730.00 Z" />
  <path id="Magadh"
        fill="none" stroke="black" stroke-width="1"
        d="M 1237.00,880.50
           C 1237.00,880.50 1214.00,863.00 1214.00,863.00
             1214.00,863.00 1169.50,858.00 1169.50,858.00
             1169.50,858.00 1143.00,877.50 1143.00,877.50
             1143.00,877.50 1141.00,848.00 1141.00,848.00
             1141.00,848.00 1116.00,840.50 1116.00,840.50
             1116.00,840.50 1101.00,806.50 1101.00,806.50
             1101.00,806.50 1072.00,780.00 1072.00,780.00
             1072.00,780.00 1042.50,753.00 1042.50,753.00
             1042.50,753.00 1074.50,721.00 1074.50,721.00
             1074.50,721.00 1074.00,698.00 1074.00,698.00
             1074.00,698.00 1093.50,699.50 1093.50,699.50
             1093.50,699.50 1156.50,717.50 1156.50,717.50
             1156.50,717.50 1186.00,731.50 1186.00,731.50
             1186.00,731.50 1205.50,762.00 1205.50,762.00
             1205.50,762.00 1255.00,766.50 1255.00,766.50
             1255.00,766.50 1309.00,770.50 1309.00,770.50
             1309.00,770.50 1280.00,801.50 1280.00,801.50
             1280.00,801.50 1262.00,843.00 1262.00,843.00
             1262.00,843.00 1237.00,880.50 1237.00,880.50 Z" />
  <path id="Malla"
        fill="none" stroke="black" stroke-width="1"
        d="M 1315.50,891.50
           C 1315.50,891.50 1281.00,904.00 1281.00,904.00
             1281.00,904.00 1273.50,891.00 1273.50,891.00
             1273.50,891.00 1237.00,883.00 1237.00,883.00
             1237.00,883.00 1262.50,841.50 1262.50,841.50
             1262.50,841.50 1280.00,803.50 1280.00,803.50
             1280.00,803.50 1309.50,770.50 1309.50,770.50
             1309.50,770.50 1357.00,775.00 1357.00,775.00
             1357.00,775.00 1389.00,801.00 1389.00,801.00
             1389.00,801.00 1365.50,811.50 1365.50,811.50
             1365.50,811.50 1348.00,839.00 1348.00,839.00
             1348.00,839.00 1344.00,886.50 1344.00,886.50
             1344.00,886.50 1333.50,896.50 1333.50,896.50
             1333.50,896.50 1315.50,891.50 1315.50,891.50 Z" />
  <path id="Pundra"
        fill="none" stroke="black" stroke-width="1"
        d="M 1411.00,962.50
           C 1411.00,962.50 1451.00,965.50 1451.00,965.50
             1451.00,965.50 1463.00,974.50 1463.00,974.50
             1463.00,974.50 1478.00,950.00 1478.00,950.00
             1478.00,950.00 1505.00,886.50 1505.00,886.50
             1505.00,886.50 1496.00,850.50 1496.00,850.50
             1496.00,850.50 1456.00,815.00 1456.00,815.00
             1456.00,815.00 1412.00,789.50 1412.00,789.50
             1412.00,789.50 1365.50,813.00 1365.50,813.00
             1365.50,813.00 1347.00,840.00 1347.00,840.00
             1347.00,840.00 1344.00,885.50 1344.00,885.50
             1344.00,885.50 1332.00,897.00 1332.00,897.00
             1332.00,897.00 1407.00,938.00 1407.00,938.00
             1407.00,938.00 1411.00,962.50 1411.00,962.50 Z" />
  <path id="Vanga"
        fill="none" stroke="black" stroke-width="1"
        d="M 1316.00,1013.50
           C 1316.00,1013.50 1322.00,1026.00 1322.00,1026.00
             1322.00,1026.00 1332.50,1025.50 1332.50,1025.50
             1332.50,1025.50 1336.50,1010.50 1336.50,1010.50
             1336.50,1010.50 1344.00,1021.50 1344.00,1021.50
             1344.00,1021.50 1369.00,1017.50 1369.00,1017.50
             1369.00,1017.50 1382.00,1008.00 1382.00,1008.00
             1382.00,1008.00 1393.50,1015.50 1393.50,1015.50
             1393.50,1015.50 1413.00,986.00 1413.00,986.00
             1413.00,986.00 1409.50,964.00 1409.50,964.00
             1409.50,964.00 1407.00,938.00 1407.00,938.00
             1407.00,938.00 1372.50,919.00 1372.50,919.00
             1372.50,919.00 1316.50,891.00 1316.50,891.00
             1316.50,891.00 1281.50,905.00 1281.50,905.00
             1281.50,905.00 1296.50,936.50 1296.50,936.50
             1296.50,936.50 1309.00,944.50 1309.00,944.50
             1309.00,944.50 1316.00,1013.50 1316.00,1013.50 Z" />
  <path id="Munda"
        fill="none" stroke="black" stroke-width="1"
        d="M 1161.00,974.00
           C 1161.00,974.00 1139.00,952.50 1139.00,952.50
             1139.00,952.50 1137.50,924.00 1137.50,924.00
             1137.50,924.00 1107.50,892.00 1107.50,892.00
             1107.50,892.00 1143.50,876.50 1143.50,876.50
             1143.50,876.50 1168.50,858.00 1168.50,858.00
             1168.50,858.00 1215.00,861.50 1215.00,861.50
             1215.00,861.50 1238.00,883.00 1238.00,883.00
             1238.00,883.00 1273.00,891.00 1273.00,891.00
             1273.00,891.00 1296.50,937.50 1296.50,937.50
             1296.50,937.50 1283.50,935.50 1283.50,935.50
             1283.50,935.50 1224.50,948.00 1224.50,948.00
             1224.50,948.00 1161.00,974.00 1161.00,974.00 Z" />
  <path id="Utkal"
        fill="none" stroke="black" stroke-width="1"
        d="M 1162.00,975.00
           C 1162.00,975.00 1222.50,948.50 1222.50,948.50
             1222.50,948.50 1283.50,934.00 1283.50,934.00
             1283.50,934.00 1308.00,943.00 1308.00,943.00
             1308.00,943.00 1311.00,971.00 1311.00,971.00
             1311.00,971.00 1314.50,1013.50 1314.50,1013.50
             1314.50,1013.50 1313.00,1023.50 1313.00,1023.50
             1313.00,1023.50 1302.00,1023.50 1302.00,1023.50
             1302.00,1023.50 1293.00,995.00 1293.00,995.00
             1293.00,995.00 1282.00,1018.50 1282.00,1018.50
             1282.00,1018.50 1249.00,1031.50 1249.00,1031.50
             1249.00,1031.50 1238.00,1046.50 1238.00,1046.50
             1238.00,1046.50 1241.50,1062.00 1241.50,1062.00
             1241.50,1062.00 1241.50,1070.50 1241.50,1070.50
             1241.50,1070.50 1229.00,1085.00 1229.00,1085.00
             1229.00,1085.00 1178.50,1072.50 1178.50,1072.50
             1178.50,1072.50 1154.50,1071.50 1154.50,1071.50
             1154.50,1071.50 1123.50,1047.50 1123.50,1047.50
             1123.50,1047.50 1146.00,1020.00 1146.00,1020.00
             1146.00,1020.00 1137.00,990.50 1137.00,990.50
             1137.00,990.50 1160.50,986.00 1160.50,986.00
             1160.50,986.00 1162.00,975.00 1162.00,975.00 Z" />
  <path id="Dasarna"
        fill="none" stroke="black" stroke-width="1"
        d="M 915.50,1025.00
           C 915.50,1025.00 916.50,1001.00 916.50,1001.00
             916.50,1001.00 908.00,994.50 908.00,994.50
             908.00,994.50 911.50,982.50 911.50,982.50
             911.50,982.50 903.50,962.50 903.50,962.50
             903.50,962.50 958.00,950.50 958.00,950.50
             958.00,950.50 980.50,971.00 980.50,971.00
             980.50,971.00 1074.50,982.50 1074.50,982.50
             1074.50,982.50 1140.50,953.50 1140.50,953.50
             1140.50,953.50 1159.50,974.00 1159.50,974.00
             1159.50,974.00 1159.50,984.50 1159.50,984.50
             1159.50,984.50 1138.00,991.50 1138.00,991.50
             1138.00,991.50 1146.50,1021.50 1146.50,1021.50
             1146.50,1021.50 1124.50,1046.50 1124.50,1046.50
             1124.50,1046.50 1097.00,1030.50 1097.00,1030.50
             1097.00,1030.50 1081.50,1020.50 1081.50,1020.50
             1081.50,1020.50 1020.50,1024.50 1020.50,1024.50
             1020.50,1024.50 1003.50,1042.50 1003.50,1042.50
             1003.50,1042.50 915.50,1025.00 915.50,1025.00 Z" />
  <path id="Mekala"
        fill="none" stroke="black" stroke-width="1"
        d="M 958.00,949.50
           C 958.00,949.50 980.50,970.50 980.50,970.50
             980.50,970.50 1072.50,983.00 1072.50,983.00
             1072.50,983.00 1139.00,954.50 1139.00,954.50
             1139.00,954.50 1137.00,924.00 1137.00,924.00
             1137.00,924.00 1106.00,892.00 1106.00,892.00
             1106.00,892.00 1018.50,895.50 1018.50,895.50
             1018.50,895.50 995.50,925.50 995.50,925.50
             995.50,925.50 958.00,949.50 958.00,949.50 Z" />
  <path id="Karusa"
        fill="none" stroke="black" stroke-width="1"
        d="M 1102.00,809.00
           C 1102.00,809.00 1102.40,809.84 1102.40,809.84
             1102.40,809.84 1116.50,839.50 1116.50,839.50
             1116.50,839.50 1142.50,847.00 1142.50,847.00
             1142.50,847.00 1142.50,878.00 1142.50,878.00
             1142.50,878.00 1111.00,891.50 1111.00,891.50
             1111.00,891.50 1065.50,891.50 1065.50,891.50
             1065.50,891.50 1017.00,896.50 1017.00,896.50
             1017.00,896.50 1029.50,881.00 1029.50,881.00
             1029.50,881.00 1010.00,860.50 1010.00,860.50
             1010.00,860.50 1007.50,831.00 1007.50,831.00
             1007.50,831.00 984.50,808.00 984.50,808.00
             984.50,808.00 1046.00,819.00 1046.00,819.00" />
  <path id="Kosal"
        fill="none" stroke="black" stroke-width="1"
        d="M 986.50,809.00
           C 986.50,809.00 907.50,809.00 907.50,809.00
             907.50,809.00 910.00,767.00 910.00,767.00
             910.00,767.00 1041.50,753.00 1041.50,753.00
             1041.50,753.00 1066.00,774.50 1066.00,774.50
             1066.00,774.50 1101.50,809.50 1101.50,809.50
             1101.50,809.50 1047.00,819.00 1047.00,819.00
             1047.00,819.00 986.50,809.00 986.50,809.00 Z" />
  <path id="Kishkindha"
        fill="none" stroke="black" stroke-width="1"
        d="M 904.50,961.50
           C 904.50,961.50 957.00,952.00 957.00,952.00
             957.00,952.00 993.00,926.00 993.00,926.00
             993.00,926.00 1030.00,881.00 1030.00,881.00
             1030.00,881.00 1010.50,861.00 1010.50,861.00
             1010.50,861.00 1007.50,831.50 1007.50,831.50
             1007.50,831.50 985.50,810.00 985.50,810.00
             985.50,810.00 907.50,810.00 907.50,810.00
             907.50,810.00 909.00,835.00 909.00,835.00
             909.00,835.00 838.00,861.00 838.00,861.00
             838.00,861.00 821.00,894.00 821.00,894.00
             821.00,894.00 829.50,941.50 829.50,941.50
             829.50,941.50 849.50,947.50 849.50,947.50
             849.50,947.50 865.50,968.00 865.50,968.00
             865.50,968.00 904.50,961.50 904.50,961.50 Z" />
  <path id="Kunti"
        fill="none" stroke="black" stroke-width="1"
        d="M 763.00,780.50
           C 763.00,780.50 791.00,742.00 791.00,742.00
             791.00,742.00 797.50,715.50 797.50,715.50
             797.50,715.50 839.50,729.50 839.50,729.50
             839.50,729.50 911.50,768.50 911.50,768.50
             911.50,768.50 906.50,801.00 906.50,801.00
             906.50,801.00 909.00,835.50 909.00,835.50
             909.00,835.50 872.00,851.00 872.00,851.00
             872.00,851.00 839.00,860.50 839.00,860.50
             839.00,860.50 830.50,848.00 830.50,848.00
             830.50,848.00 853.00,826.00 853.00,826.00
             853.00,826.00 799.00,812.00 799.00,812.00
             799.00,812.00 766.50,795.50 766.50,795.50
             766.50,795.50 763.00,780.50 763.00,780.50 Z" />
  <path id="Panchaal"
        fill="none" stroke="black" stroke-width="1"
        d="M 839.00,729.50
           C 839.00,729.50 869.50,748.50 869.50,748.50
             869.50,748.50 911.00,767.50 911.00,767.50
             911.00,767.50 957.50,760.00 957.50,760.00
             957.50,760.00 1014.50,755.50 1014.50,755.50
             1014.50,755.50 1041.50,754.00 1041.50,754.00
             1041.50,754.00 1074.00,720.50 1074.00,720.50
             1074.00,720.50 1073.50,685.50 1073.50,685.50
             1073.50,685.50 996.50,653.00 996.50,653.00
             996.50,653.00 972.00,651.00 972.00,651.00
             972.00,651.00 900.00,677.00 900.00,677.00
             900.00,677.00 873.00,690.50 873.00,690.50
             873.00,690.50 839.00,729.50 839.00,729.50 Z" />
  <path id="Kuru"
        fill="none" stroke="black" stroke-width="1"
        d="M 661.50,648.00
           C 661.50,648.00 689.00,600.50 689.00,600.50
             689.00,600.50 741.00,564.50 741.00,564.50
             741.00,564.50 795.50,563.00 795.50,563.00
             795.50,563.00 811.50,573.00 811.50,573.00
             811.50,573.00 849.50,544.50 849.50,544.50
             849.50,544.50 862.50,571.00 862.50,571.00
             862.50,571.00 893.00,575.00 893.00,575.00
             893.00,575.00 945.50,603.00 945.50,603.00
             945.50,603.00 971.50,647.50 971.50,647.50
             971.50,647.50 939.50,661.00 939.50,661.00
             939.50,661.00 899.50,677.00 899.50,677.00
             899.50,677.00 871.00,692.50 871.00,692.50
             871.00,692.50 839.00,731.00 839.00,731.00
             839.00,731.00 798.50,714.50 798.50,714.50
             798.50,714.50 797.50,683.50 797.50,683.50
             797.50,683.50 743.00,682.50 743.00,682.50
             743.00,682.50 661.50,648.00 661.50,648.00 Z" />
  <path id="Matsya"
        fill="none" stroke="black" stroke-width="1"
        d="M 593.50,743.50
           C 593.50,743.50 573.50,701.50 573.50,701.50
             573.50,701.50 593.00,690.00 593.00,690.00
             593.00,690.00 596.00,671.50 596.00,671.50
             596.00,671.50 645.50,641.50 645.50,641.50
             645.50,641.50 689.00,662.00 689.00,662.00
             689.00,662.00 744.50,683.00 744.50,683.00
             744.50,683.00 797.00,683.00 797.00,683.00
             797.00,683.00 799.50,712.00 799.50,712.00
             799.50,712.00 790.50,740.50 790.50,740.50
             790.50,740.50 763.00,780.00 763.00,780.00
             763.00,780.00 671.50,761.00 671.50,761.00
             671.50,761.00 631.00,763.00 631.00,763.00
             631.00,763.00 593.50,743.50 593.50,743.50 Z" />
  <path id="Kuntala"
        fill="none" stroke="black" stroke-width="1"
        d="M 547.00,774.00
           C 547.00,774.00 579.50,835.00 579.50,835.00
             579.50,835.00 576.50,884.50 576.50,884.50
             576.50,884.50 620.50,882.00 620.50,882.00
             620.50,882.00 651.00,888.50 651.00,888.50
             651.00,888.50 671.50,926.00 671.50,926.00
             671.50,926.00 708.50,944.50 708.50,944.50
             708.50,944.50 794.50,937.50 794.50,937.50
             794.50,937.50 829.50,941.50 829.50,941.50
             829.50,941.50 820.50,894.00 820.50,894.00
             820.50,894.00 837.50,861.00 837.50,861.00
             837.50,861.00 830.50,846.50 830.50,846.50
             830.50,846.50 852.00,825.50 852.00,825.50
             852.00,825.50 797.50,811.50 797.50,811.50
             797.50,811.50 766.50,794.50 766.50,794.50
             766.50,794.50 761.50,779.50 761.50,779.50
             761.50,779.50 723.50,773.00 723.50,773.00
             723.50,773.00 672.00,760.00 672.00,760.00
             672.00,760.00 630.50,762.00 630.50,762.00
             630.50,762.00 593.50,743.50 593.50,743.50
             593.50,743.50 584.00,760.00 584.00,760.00
             584.00,760.00 547.00,774.00 547.00,774.00 Z" />
  <path id="Maru"
        fill="none" stroke="black" stroke-width="1"
        d="M 488.50,767.50
           C 488.50,767.50 458.00,743.50 458.00,743.50
             458.00,743.50 459.00,701.50 459.00,701.50
             459.00,701.50 474.50,670.50 474.50,670.50
             474.50,670.50 536.50,669.50 536.50,669.50
             536.50,669.50 585.50,654.50 585.50,654.50
             585.50,654.50 597.00,674.00 597.00,674.00
             597.00,674.00 593.50,689.00 593.50,689.00
             593.50,689.00 572.50,703.00 572.50,703.00
             572.50,703.00 591.50,744.00 591.50,744.00
             591.50,744.00 584.50,763.00 584.50,763.00
             584.50,763.00 546.50,775.50 546.50,775.50
             546.50,775.50 562.50,802.00 562.50,802.00
             562.50,802.00 503.00,769.00 503.00,769.00
             503.00,769.00 488.50,767.50 488.50,767.50 Z" />
  <path id="Kacch"
        fill="none" stroke="black" stroke-width="1"
        d="M 499.00,1018.50
           C 499.00,1018.50 506.50,994.50 506.50,994.50
             506.50,994.50 472.00,962.00 472.00,962.00
             472.00,962.00 475.50,918.00 475.50,918.00
             475.50,918.00 535.00,880.50 535.00,880.50
             535.00,880.50 577.50,884.50 577.50,884.50
             577.50,884.50 579.00,834.00 579.00,834.00
             579.00,834.00 561.00,802.50 561.00,802.50
             561.00,802.50 501.50,768.00 501.50,768.00
             501.50,768.00 438.00,769.00 438.00,769.00
             438.00,769.00 419.50,795.50 419.50,795.50
             419.50,795.50 395.50,806.00 395.50,806.00
             395.50,806.00 347.50,812.50 347.50,812.50
             347.50,812.50 326.50,841.00 326.50,841.00
             326.50,841.00 358.50,864.00 358.50,864.00
             358.50,864.00 366.00,887.00 366.00,887.00
             366.00,887.00 397.50,907.00 397.50,907.00
             397.50,907.00 425.50,915.00 425.50,915.00
             425.50,915.00 460.00,905.00 460.00,905.00
             460.00,905.00 443.00,927.00 443.00,927.00
             443.00,927.00 395.00,934.50 395.00,934.50
             395.00,934.50 376.50,929.00 376.50,929.00
             376.50,929.00 389.50,955.50 389.50,955.50
             389.50,955.50 415.00,992.50 415.00,992.50
             415.00,992.50 449.50,1026.50 449.50,1026.50
             449.50,1026.50 467.50,1028.50 467.50,1028.50
             467.50,1028.50 499.00,1018.50 499.00,1018.50 Z" />
  <path id="Surashtra"
        fill="none" stroke="black" stroke-width="1"
        d="M 506.50,994.50
           C 506.50,994.50 470.50,962.50 470.50,962.50
             470.50,962.50 475.50,917.50 475.50,917.50
             475.50,917.50 535.00,881.50 535.00,881.50
             535.00,881.50 584.50,884.00 584.50,884.00
             584.50,884.00 621.00,882.50 621.00,882.50
             621.00,882.50 651.50,887.50 651.50,887.50
             651.50,887.50 672.00,926.00 672.00,926.00
             672.00,926.00 708.50,943.00 708.50,943.00
             708.50,943.00 691.00,977.50 691.00,977.50
             691.00,977.50 683.50,1015.50 683.50,1015.50
             683.50,1015.50 650.50,1017.50 650.50,1017.50
             650.50,1017.50 622.00,1006.50 622.00,1006.50
             622.00,1006.50 583.50,1016.50 583.50,1016.50
             583.50,1016.50 549.50,1019.00 549.50,1019.00
             549.50,1019.00 544.50,1016.00 544.50,1016.00
             544.50,1016.00 560.50,988.50 560.50,988.50
             560.50,988.50 548.50,986.50 548.50,986.50
             548.50,986.50 546.50,971.50 546.50,971.50
             546.50,971.50 552.00,959.50 552.00,959.50
             552.00,959.50 544.00,955.00 544.00,955.00
             544.00,955.00 533.50,971.50 533.50,971.50
             533.50,971.50 534.00,990.00 534.00,990.00
             534.00,990.00 525.50,1009.00 525.50,1009.00
             525.50,1009.00 498.00,1018.00 498.00,1018.00
             498.00,1018.00 506.50,994.50 506.50,994.50 Z" />
  <path id="Karnapravarna"
        fill="none" stroke="black" stroke-width="1"
        d="M 683.00,1013.50
           C 683.00,1013.50 689.50,979.00 689.50,979.00
             689.50,979.00 709.00,944.50 709.00,944.50
             709.00,944.50 794.00,937.50 794.00,937.50
             794.00,937.50 847.50,945.50 847.50,945.50
             847.50,945.50 865.00,969.00 865.00,969.00
             865.00,969.00 903.00,961.00 903.00,961.00
             903.00,961.00 912.00,982.00 912.00,982.00
             912.00,982.00 908.00,994.50 908.00,994.50
             908.00,994.50 915.00,1000.50 915.00,1000.50
             915.00,1000.50 917.00,1015.00 917.00,1015.00
             917.00,1015.00 916.50,1026.00 916.50,1026.00
             916.50,1026.00 906.00,1025.00 906.00,1025.00
             906.00,1025.00 811.50,1034.00 811.50,1034.00
             811.50,1034.00 774.00,1030.50 774.00,1030.50
             774.00,1030.50 758.00,1023.50 758.00,1023.50
             758.00,1023.50 683.00,1013.50 683.00,1013.50 Z" />
  <path id="Goparashtra"
        fill="none" stroke="black" stroke-width="1"
        d="M 543.50,1071.00
           C 543.50,1071.00 555.00,1041.50 555.00,1041.50
             555.00,1041.50 548.50,1019.00 548.50,1019.00
             548.50,1019.00 583.00,1017.00 583.00,1017.00
             583.00,1017.00 619.50,1004.50 619.50,1004.50
             619.50,1004.50 651.50,1014.50 651.50,1014.50
             651.50,1014.50 712.50,1015.00 712.50,1015.00
             712.50,1015.00 759.00,1022.50 759.00,1022.50
             759.00,1022.50 775.00,1030.00 775.00,1030.00
             775.00,1030.00 749.50,1052.00 749.50,1052.00
             749.50,1052.00 745.50,1084.00 745.50,1084.00
             745.50,1084.00 543.50,1071.00 543.50,1071.00 Z" />
  <path id="Lanka"
        fill="none" stroke="black" stroke-width="1"
        d="M 870.00,1689.33
           C 870.00,1689.33 862.00,1723.33 862.00,1723.33
             862.00,1723.33 858.00,1747.33 858.00,1747.33
             858.00,1747.33 858.00,1784.00 858.00,1784.00
             858.00,1784.00 872.67,1831.33 872.67,1831.33
             872.67,1831.33 894.67,1842.67 894.67,1842.67
             894.67,1842.67 948.67,1829.33 948.67,1829.33
             948.67,1829.33 966.00,1808.00 966.00,1808.00
             966.00,1808.00 975.33,1764.67 975.33,1764.67
             975.33,1764.67 965.33,1762.00 965.33,1762.00
             965.33,1762.00 952.67,1727.33 952.67,1727.33
             952.67,1727.33 939.33,1694.67 939.33,1694.67
             939.33,1694.67 910.67,1656.67 910.67,1656.67
             910.67,1656.67 891.33,1634.00 891.33,1634.00
             891.33,1634.00 863.33,1632.67 863.33,1632.67
             863.33,1632.67 869.33,1640.67 869.33,1640.67
             869.33,1640.67 882.00,1644.00 882.00,1644.00
             882.00,1644.00 879.33,1662.67 879.33,1662.67
             879.33,1662.67 870.00,1689.33 870.00,1689.33 Z" />
  <path id="Kareskar"
        fill="none" stroke="black" stroke-width="1"
        d="M 616.00,1463.33
           C 616.00,1463.33 655.33,1434.00 655.33,1434.00
             655.33,1434.00 682.00,1458.67 682.00,1458.67
             682.00,1458.67 702.00,1513.33 702.00,1513.33
             702.00,1513.33 720.00,1544.67 720.00,1544.67
             720.00,1544.67 756.67,1567.33 756.67,1567.33
             756.67,1567.33 743.33,1576.00 743.33,1576.00
             743.33,1576.00 740.67,1600.00 740.67,1600.00
             740.67,1600.00 720.67,1597.33 720.67,1597.33
             720.67,1597.33 693.33,1599.33 693.33,1599.33
             693.33,1599.33 677.33,1593.33 677.33,1593.33
             677.33,1593.33 660.00,1540.67 660.00,1540.67
             660.00,1540.67 642.00,1510.00 642.00,1510.00
             642.00,1510.00 616.00,1463.33 616.00,1463.33 Z" />
  <path id="Talavan"
        fill="none" stroke="black" stroke-width="1"
        d="M 756.67,1568.00
           C 756.67,1568.00 778.00,1557.33 778.00,1557.33
             778.00,1557.33 802.67,1503.33 802.67,1503.33
             802.67,1503.33 774.67,1465.33 774.67,1465.33
             774.67,1465.33 774.00,1437.33 774.00,1437.33
             774.00,1437.33 750.67,1438.67 750.67,1438.67
             750.67,1438.67 757.33,1409.33 757.33,1409.33
             757.33,1409.33 656.00,1433.33 656.00,1433.33
             656.00,1433.33 682.00,1458.67 682.00,1458.67
             682.00,1458.67 701.33,1512.67 701.33,1512.67
             701.33,1512.67 719.33,1544.00 719.33,1544.00
             719.33,1544.00 756.67,1568.00 756.67,1568.00 Z" />
  <path id="Kanci"
        fill="none" stroke="black" stroke-width="1"
        d="M 841.33,1604.00
           C 841.33,1604.00 870.67,1604.67 870.67,1604.67
             870.67,1604.67 870.67,1582.67 870.67,1582.67
             870.67,1582.67 871.33,1555.33 871.33,1555.33
             871.33,1555.33 869.33,1524.67 869.33,1524.67
             869.33,1524.67 892.67,1492.67 892.67,1492.67
             892.67,1492.67 904.00,1438.67 904.00,1438.67
             904.00,1438.67 897.33,1393.33 897.33,1393.33
             897.33,1393.33 896.67,1382.67 896.67,1382.67
             896.67,1382.67 878.00,1378.00 878.00,1378.00
             878.00,1378.00 852.67,1385.33 852.67,1385.33
             852.67,1385.33 826.67,1380.67 826.67,1380.67
             826.67,1380.67 810.67,1366.00 810.67,1366.00
             810.67,1366.00 754.00,1360.67 754.00,1360.67
             754.00,1360.67 758.67,1402.67 758.67,1402.67
             758.67,1402.67 750.00,1438.67 750.00,1438.67
             750.00,1438.67 774.00,1438.67 774.00,1438.67
             774.00,1438.67 774.00,1466.00 774.00,1466.00
             774.00,1466.00 803.33,1502.67 803.33,1502.67
             803.33,1502.67 777.33,1557.33 777.33,1557.33
             777.33,1557.33 742.67,1576.00 742.67,1576.00
             742.67,1576.00 740.67,1598.67 740.67,1598.67
             740.67,1598.67 777.33,1593.33 777.33,1593.33
             777.33,1593.33 814.00,1594.00 814.00,1594.00
             814.00,1594.00 841.33,1604.00 841.33,1604.00 Z" />
  <path id="Kaling"
        fill="none" stroke="black" stroke-width="1"
        d="M 1004.67,1254.00
           C 1004.67,1254.00 978.67,1235.33 978.67,1235.33
             978.67,1235.33 945.33,1223.33 945.33,1223.33
             945.33,1223.33 938.67,1216.00 938.67,1216.00
             938.67,1216.00 933.33,1196.67 933.33,1196.67
             933.33,1196.67 916.67,1178.00 916.67,1178.00
             916.67,1178.00 946.67,1136.67 946.67,1136.67
             946.67,1136.67 1001.33,1132.00 1001.33,1132.00
             1001.33,1132.00 1038.00,1122.67 1038.00,1122.67
             1038.00,1122.67 1082.67,1137.33 1082.67,1137.33
             1082.67,1137.33 1129.33,1157.33 1129.33,1157.33
             1129.33,1157.33 1097.33,1200.00 1097.33,1200.00
             1097.33,1200.00 1072.00,1210.67 1072.00,1210.67
             1072.00,1210.67 1058.00,1229.33 1058.00,1229.33
             1058.00,1229.33 1004.67,1254.00 1004.67,1254.00 Z" />
  <path id="Manipur"
        fill="none" stroke="black" stroke-width="1"
        d="M 1078.67,1134.00
           C 1078.67,1134.00 1131.33,1157.33 1131.33,1157.33
             1131.33,1157.33 1172.00,1127.33 1172.00,1127.33
             1172.00,1127.33 1206.00,1116.00 1206.00,1116.00
             1206.00,1116.00 1236.67,1089.33 1236.67,1089.33
             1236.67,1089.33 1184.67,1072.00 1184.67,1072.00
             1184.67,1072.00 1154.00,1070.67 1154.00,1070.67
             1154.00,1070.67 1097.33,1031.33 1097.33,1031.33
             1097.33,1031.33 1096.67,1062.67 1096.67,1062.67
             1096.67,1062.67 1089.33,1079.33 1089.33,1079.33
             1089.33,1079.33 1087.33,1106.00 1087.33,1106.00
             1087.33,1106.00 1078.67,1134.00 1078.67,1134.00 Z" />
  <path id="Guha"
        fill="none" stroke="black" stroke-width="1"
        d="M 976.00,1133.33
           C 976.00,1133.33 979.33,1106.67 979.33,1106.67
             979.33,1106.67 975.33,1080.00 975.33,1080.00
             975.33,1080.00 1003.33,1045.33 1003.33,1045.33
             1003.33,1045.33 1021.33,1024.67 1021.33,1024.67
             1021.33,1024.67 1082.67,1020.67 1082.67,1020.67
             1082.67,1020.67 1096.00,1030.67 1096.00,1030.67
             1096.00,1030.67 1094.67,1062.67 1094.67,1062.67
             1094.67,1062.67 1086.00,1080.00 1086.00,1080.00
             1086.00,1080.00 1086.67,1107.33 1086.67,1107.33
             1086.67,1107.33 1078.67,1136.00 1078.67,1136.00
             1078.67,1136.00 1038.67,1122.00 1038.67,1122.00
             1038.67,1122.00 1004.67,1132.67 1004.67,1132.67
             1004.67,1132.67 976.00,1133.33 976.00,1133.33 Z" />
  <path id="Vidharbha"
        fill="none" stroke="black" stroke-width="1"
        d="M 744.67,1083.33
           C 744.67,1083.33 750.00,1052.67 750.00,1052.67
             750.00,1052.67 775.33,1030.00 775.33,1030.00
             775.33,1030.00 809.33,1034.67 809.33,1034.67
             809.33,1034.67 852.67,1027.33 852.67,1027.33
             852.67,1027.33 906.67,1024.67 906.67,1024.67
             906.67,1024.67 965.33,1036.00 965.33,1036.00
             965.33,1036.00 1002.67,1042.67 1002.67,1042.67
             1002.67,1042.67 975.33,1078.67 975.33,1078.67
             975.33,1078.67 978.67,1108.67 978.67,1108.67
             978.67,1108.67 976.67,1133.33 976.67,1133.33
             976.67,1133.33 966.67,1135.33 966.67,1135.33
             966.67,1135.33 921.33,1103.33 921.33,1103.33
             921.33,1103.33 878.67,1124.67 878.67,1124.67
             878.67,1124.67 834.00,1125.33 834.00,1125.33
             834.00,1125.33 793.33,1154.00 793.33,1154.00
             793.33,1154.00 772.00,1136.67 772.00,1136.67
             772.00,1136.67 750.00,1140.67 750.00,1140.67
             750.00,1140.67 744.67,1083.33 744.67,1083.33 Z" />
  <path id="Pamsurashtra"
        fill="none" stroke="black" stroke-width="1"
        d="M 542.00,1114.67
           C 542.00,1114.67 550.00,1101.33 550.00,1101.33
             550.00,1101.33 542.67,1084.67 542.67,1084.67
             542.67,1084.67 544.67,1074.00 544.67,1074.00
             544.67,1074.00 671.33,1080.00 671.33,1080.00
             671.33,1080.00 744.67,1085.33 744.67,1085.33
             744.67,1085.33 748.00,1128.67 748.00,1128.67
             748.00,1128.67 750.67,1140.67 750.67,1140.67
             750.67,1140.67 733.33,1145.33 733.33,1145.33
             733.33,1145.33 720.67,1134.00 720.67,1134.00
             720.67,1134.00 661.33,1136.67 661.33,1136.67
             661.33,1136.67 641.33,1135.33 641.33,1135.33
             641.33,1135.33 602.00,1116.00 602.00,1116.00
             602.00,1116.00 542.00,1114.67 542.00,1114.67 Z" />
  <path id="Asmak"
        fill="none" stroke="black" stroke-width="1"
        d="M 662.00,1136.67
           C 662.00,1136.67 665.33,1159.33 665.33,1159.33
             665.33,1159.33 682.67,1190.67 682.67,1190.67
             682.67,1190.67 742.67,1180.00 742.67,1180.00
             742.67,1180.00 769.33,1194.00 769.33,1194.00
             769.33,1194.00 829.33,1196.00 829.33,1196.00
             829.33,1196.00 806.67,1183.33 806.67,1183.33
             806.67,1183.33 794.00,1155.33 794.00,1155.33
             794.00,1155.33 772.00,1137.33 772.00,1137.33
             772.00,1137.33 736.00,1144.00 736.00,1144.00
             736.00,1144.00 719.33,1134.00 719.33,1134.00
             719.33,1134.00 662.00,1136.67 662.00,1136.67 Z" />
  <path id="Aparant"
        fill="none" stroke="black" stroke-width="1"
        d="M 556.00,1222.00
           C 556.00,1222.00 552.67,1167.33 552.67,1167.33
             552.67,1167.33 545.33,1138.00 545.33,1138.00
             545.33,1138.00 542.67,1116.00 542.67,1116.00
             542.67,1116.00 602.00,1116.67 602.00,1116.67
             602.00,1116.67 642.67,1136.00 642.67,1136.00
             642.67,1136.00 662.00,1138.00 662.00,1138.00
             662.00,1138.00 665.33,1159.33 665.33,1159.33
             665.33,1159.33 682.67,1191.33 682.67,1191.33
             682.67,1191.33 645.33,1194.67 645.33,1194.67
             645.33,1194.67 626.00,1209.33 626.00,1209.33
             626.00,1209.33 621.33,1243.33 621.33,1243.33
             621.33,1243.33 556.00,1222.00 556.00,1222.00 Z" />
  <path id="Kuntal"
        fill="none" stroke="black" stroke-width="1"
        d="M 796.00,1305.33
           C 796.00,1305.33 744.67,1274.00 744.67,1274.00
             744.67,1274.00 708.67,1289.33 708.67,1289.33
             708.67,1289.33 679.33,1278.00 679.33,1278.00
             679.33,1278.00 660.00,1263.33 660.00,1263.33
             660.00,1263.33 626.00,1259.33 626.00,1259.33
             626.00,1259.33 620.67,1246.67 620.67,1246.67
             620.67,1246.67 626.00,1210.00 626.00,1210.00
             626.00,1210.00 646.00,1195.33 646.00,1195.33
             646.00,1195.33 697.33,1190.00 697.33,1190.00
             697.33,1190.00 714.67,1185.33 714.67,1185.33
             714.67,1185.33 742.67,1178.67 742.67,1178.67
             742.67,1178.67 771.33,1193.33 771.33,1193.33
             771.33,1193.33 827.33,1194.00 827.33,1194.00
             827.33,1194.00 845.33,1239.33 845.33,1239.33
             845.33,1239.33 796.00,1305.33 796.00,1305.33 Z" />
  <path id="Andhra"
        fill="none" stroke="black" stroke-width="1"
        d="M 780.00,1362.00
           C 780.00,1362.00 811.33,1364.67 811.33,1364.67
             811.33,1364.67 826.67,1380.00 826.67,1380.00
             826.67,1380.00 853.33,1384.67 853.33,1384.67
             853.33,1384.67 878.00,1378.67 878.00,1378.67
             878.00,1378.67 897.33,1382.67 897.33,1382.67
             897.33,1382.67 894.00,1349.33 894.00,1349.33
             894.00,1349.33 901.33,1330.67 901.33,1330.67
             901.33,1330.67 928.00,1316.00 928.00,1316.00
             928.00,1316.00 938.67,1324.67 938.67,1324.67
             938.67,1324.67 950.00,1307.33 950.00,1307.33
             950.00,1307.33 961.33,1295.33 961.33,1295.33
             961.33,1295.33 994.67,1293.33 994.67,1293.33
             994.67,1293.33 1008.00,1269.33 1008.00,1269.33
             1008.00,1269.33 1003.33,1255.33 1003.33,1255.33
             1003.33,1255.33 977.33,1236.67 977.33,1236.67
             977.33,1236.67 945.33,1222.67 945.33,1222.67
             945.33,1222.67 894.67,1228.67 894.67,1228.67
             894.67,1228.67 845.33,1237.33 845.33,1237.33
             845.33,1237.33 812.67,1275.33 812.67,1275.33
             812.67,1275.33 796.00,1306.00 796.00,1306.00
             796.00,1306.00 789.33,1353.33 789.33,1353.33
             789.33,1353.33 780.00,1362.00 780.00,1362.00 Z" />
  <path id="Konkan"
        fill="none" stroke="black" stroke-width="1"
        d="M 596.00,1352.67
           C 596.00,1352.67 586.67,1343.33 586.67,1343.33
             586.67,1343.33 583.33,1322.00 583.33,1322.00
             583.33,1322.00 564.67,1295.33 564.67,1295.33
             564.67,1295.33 559.33,1255.33 559.33,1255.33
             559.33,1255.33 558.00,1223.33 558.00,1223.33
             558.00,1223.33 620.67,1244.67 620.67,1244.67
             620.67,1244.67 626.67,1259.33 626.67,1259.33
             626.67,1259.33 660.67,1262.00 660.67,1262.00
             660.67,1262.00 684.67,1279.33 684.67,1279.33
             684.67,1279.33 708.00,1288.67 708.00,1288.67
             708.00,1288.67 728.00,1282.00 728.00,1282.00
             728.00,1282.00 743.33,1274.00 743.33,1274.00
             743.33,1274.00 767.33,1283.33 767.33,1283.33
             767.33,1283.33 797.33,1306.00 797.33,1306.00
             797.33,1306.00 789.33,1352.67 789.33,1352.67
             789.33,1352.67 781.33,1362.67 781.33,1362.67
             781.33,1362.67 718.00,1354.00 718.00,1354.00
             718.00,1354.00 676.00,1347.33 676.00,1347.33
             676.00,1347.33 596.00,1352.67 596.00,1352.67 Z" />
  <path id="Gokam"
        fill="none" stroke="black" stroke-width="1"
        d="M 616.00,1462.67
           C 616.00,1462.67 654.67,1433.33 654.67,1433.33
             654.67,1433.33 756.67,1409.33 756.67,1409.33
             756.67,1409.33 754.00,1360.00 754.00,1360.00
             754.00,1360.00 678.00,1347.33 678.00,1347.33
             678.00,1347.33 637.33,1351.33 637.33,1351.33
             637.33,1351.33 596.67,1353.33 596.67,1353.33
             596.67,1353.33 603.33,1368.67 603.33,1368.67
             603.33,1368.67 605.33,1394.00 605.33,1394.00
             605.33,1394.00 614.00,1408.67 614.00,1408.67
             614.00,1408.67 616.00,1462.67 616.00,1462.67 Z" />
  <path id="Angarashtra"
        fill="none" stroke="black" stroke-width="1"
        d="M 794.00,1154.67
           C 794.00,1154.67 834.00,1126.67 834.00,1126.67
             834.00,1126.67 879.33,1124.67 879.33,1124.67
             879.33,1124.67 921.33,1104.00 921.33,1104.00
             921.33,1104.00 944.00,1116.67 944.00,1116.67
             944.00,1116.67 965.33,1135.33 965.33,1135.33
             965.33,1135.33 944.67,1137.33 944.67,1137.33
             944.67,1137.33 916.67,1177.33 916.67,1177.33
             916.67,1177.33 934.00,1198.00 934.00,1198.00
             934.00,1198.00 939.33,1218.00 939.33,1218.00
             939.33,1218.00 944.00,1224.67 944.00,1224.67
             944.00,1224.67 846.67,1238.00 846.67,1238.00
             846.67,1238.00 830.00,1193.33 830.00,1193.33
             830.00,1193.33 806.00,1182.67 806.00,1182.67
             806.00,1182.67 794.00,1154.67 794.00,1154.67 Z" />
  <path id="Madura"
        fill="none" stroke="black" stroke-width="1"
        d="M 744.00,1717.33
           C 744.00,1717.33 768.67,1705.33 768.67,1705.33
             768.67,1705.33 779.33,1674.67 779.33,1674.67
             779.33,1674.67 828.00,1659.33 828.00,1659.33
             828.00,1659.33 820.67,1650.00 820.67,1650.00
             820.67,1650.00 827.33,1630.67 827.33,1630.67
             827.33,1630.67 836.67,1620.67 836.67,1620.67
             836.67,1620.67 843.33,1604.00 843.33,1604.00
             843.33,1604.00 814.67,1594.67 814.67,1594.67
             814.67,1594.67 777.33,1594.67 777.33,1594.67
             777.33,1594.67 751.33,1601.33 751.33,1601.33
             751.33,1601.33 722.00,1598.00 722.00,1598.00
             722.00,1598.00 692.67,1600.00 692.67,1600.00
             692.67,1600.00 675.33,1593.33 675.33,1593.33
             675.33,1593.33 684.67,1620.67 684.67,1620.67
             684.67,1620.67 683.33,1648.67 683.33,1648.67
             683.33,1648.67 696.00,1678.67 696.00,1678.67
             696.00,1678.67 714.67,1701.33 714.67,1701.33
             714.67,1701.33 744.00,1717.33 744.00,1717.33 Z" />
</svg>
